<?xml version="1.0" standalone="no"?><!DOCTYPE svg PUBLIC "-//W3C//DTD SVG 1.1//EN" "http://www.w3.org/Graphics/SVG/1.1/DTD/svg11.dtd"><svg t="1681711214006" class="icon" viewBox="0 0 1024 1024" version="1.1" xmlns="http://www.w3.org/2000/svg" p-id="812" xmlns:xlink="http://www.w3.org/1999/xlink" width="200" height="200"><path d="M467.466 221.088c10.83-10.81 28.13-11.55 39.84-1.7l1.87 1.74 294.9 294.9c11.37 11.68 11.12 30.36-0.56 41.72-10.76 10.48-27.67 11.2-39.28 1.68l-1.87-1.74-294.9-294.9c-11.37-11.5-11.37-30 0-41.5v-0.2z" fill="#bfcbd9" p-id="813"></path><path d="M633.676 169.378l-13.49 12.45c-89.76 81.88-283.52 268.63-372.79 357.98a118.539 118.539 0 0 0-19.75 25.85 113.614 113.614 0 0 0-10.46 83.83l2.28 10.62-15.94 16.85a401.297 401.297 0 0 0-59.68 74.04c-23.3 31.51-20.75 75.17 6.06 103.75 21.79 23.4 56.93 28.48 84.45 12.2a265.148 265.148 0 0 0 64.28-46.98l4.77-4.4c3.4-3.15 6.85-6.43 10.67-10.08l26.68-25.9 2.86 1.33c43.36 20.73 95.22 10.06 126.87-26.1l204.35-193.56 44.99-43.58c58.1-56.23 103.33-101.05 134.13-133.46 131.1-138.15-73.25-347.31-220.24-215.01l-0.04 0.17z m177.46 174.3l-10.62 11.12c-36.02 37.35-88.85 89.18-156.54 154.09l-210.66 200.07c-26.73 25.52-42.45 28.05-63.33 19.38l-14.19-6.47-3.9-1.66-0.75-0.42a35.235 35.235 0 0 0-39.59 6.47l-11.25 10.75-24.03 23.28c-3.49 3.38-7 6.72-10.54 10.04l-2.45 2.28c-42.37 39.47-63.49 49.34-69.97 42.33-15.6-16.85-2.41-39.67 77.27-122.88a34.788 34.788 0 0 0 8.8-33.2c-0.33-2.1-0.72-4.21-1.16-6.31l-2.37-10.71a62.255 62.255 0 0 1 3.28-47.23c2.74-4.77 6.12-9.14 10.04-12.99l15.11-15.06c90.43-89.76 258.17-251.37 345.7-332l23.28-21.25c90.89-81.8 217 47.35 137.99 130.6l-0.12-0.23z" fill="#bfcbd9" p-id="814"></path><path d="M540.846 510.628l20.75 20.75-125.13 125.13-20.75-20.75c-11.37-11.5-11.37-30 0-41.5l83.42-83.42c11.46-11.57 30.13-11.66 41.71-0.21z" fill="#bfcbd9" p-id="815"></path></svg>