<?xml version="1.0" standalone="no"?><!DOCTYPE svg PUBLIC "-//W3C//DTD SVG 1.1//EN" "http://www.w3.org/Graphics/SVG/1.1/DTD/svg11.dtd"><svg t="1681711680428" class="icon" viewBox="0 0 1024 1024" version="1.1" xmlns="http://www.w3.org/2000/svg" p-id="1469" xmlns:xlink="http://www.w3.org/1999/xlink" width="200" height="200"><path d="M726.547 387.482a25.805 25.805 0 0 0-25.907-25.805H271.993a25.805 25.805 0 1 0 0 51.2H700.64a25.805 25.805 0 0 0 25.907-25.395zM460.614 532.48h-188.62a25.805 25.805 0 1 0 0 51.2h188.62a25.805 25.805 0 1 0 0-51.2z m0 170.906h-188.62a25.805 25.805 0 1 0 0 51.2h188.62a25.805 25.805 0 1 0 0-51.2z" fill="#abb7c6" p-id="1470"></path><path d="M741.088 929.792H125.357v-773.53h128.921v12.698a54.272 54.272 0 0 0 54.17 54.17h355.84a54.272 54.272 0 0 0 54.17-54.17v-12.698h128.92v334.439a25.805 25.805 0 0 0 51.2 0V143.36a38.707 38.707 0 0 0-38.706-38.707H718.457v-7.885a54.272 54.272 0 0 0-54.17-54.17H308.55a54.272 54.272 0 0 0-54.17 54.17v7.885H112.455A38.707 38.707 0 0 0 73.85 143.36v799.334a38.707 38.707 0 0 0 38.708 38.708h628.53a25.805 25.805 0 0 0 0-51.2v-0.41z m-435.2-833.024a2.644 2.644 0 0 1 2.662-2.662h355.738a2.644 2.644 0 0 1 2.662 2.662v71.68a2.662 2.662 0 0 1-2.662 2.662H308.55a2.662 2.662 0 0 1-2.662-2.662v-71.68z" fill="#abb7c6" p-id="1471"></path><path d="M992.787 924.16L887.929 813.158A167.526 167.526 0 1 0 748.87 880.64h4.915a166.294 166.294 0 0 0 97.28-31.437L955.31 959.59a25.805 25.805 0 0 0 37.478-35.43z m-242.38-94.72a116.02 116.02 0 0 1 3.276-232.038h3.38a116.02 116.02 0 1 1-6.657 232.038z" fill="#abb7c6" p-id="1472"></path></svg>